<svg width="44" height="44" viewBox="0 0 44 44" fill="none" xmlns="http://www.w3.org/2000/svg">
<path d="M25.4513 8.92247C26.4816 7.98307 27.1335 6.63447 27.1335 5.13333C27.1335 2.3034 24.8309 0 22.0002 0C19.1695 0 16.8669 2.3034 16.8669 5.13333C16.8669 6.63447 17.5188 7.98307 18.5491 8.92247C15.5065 9.50913 13.2002 12.1887 13.2002 15.4V18.3333C13.2002 18.7389 13.5287 19.0667 13.9335 19.0667H30.0669C30.4717 19.0667 30.8002 18.7389 30.8002 18.3333V15.4C30.8002 12.1887 28.4939 9.50913 25.4513 8.92247ZM18.3335 5.13333C18.3335 3.11153 19.9784 1.46667 22.0002 1.46667C24.022 1.46667 25.6669 3.11153 25.6669 5.13333C25.6669 7.15513 24.022 8.8 22.0002 8.8C19.9784 8.8 18.3335 7.15513 18.3335 5.13333ZM29.3335 17.6H14.6669V15.4C14.6669 12.5701 16.9695 10.2667 19.8002 10.2667H24.2002C27.0309 10.2667 29.3335 12.5701 29.3335 15.4V17.6Z" fill="#435059"/>
<path d="M12.2511 33.8558C13.2814 32.9164 13.9333 31.5678 13.9333 30.0667C13.9333 27.2367 11.6307 24.9333 8.8 24.9333C5.96933 24.9333 3.66667 27.2367 3.66667 30.0667C3.66667 31.5678 4.3186 32.9164 5.34893 33.8558C2.30633 34.4425 0 37.1221 0 40.3333V43.2667C0 43.6722 0.328533 44 0.733333 44H16.8667C17.2715 44 17.6 43.6722 17.6 43.2667V40.3333C17.6 37.1221 15.2937 34.4425 12.2511 33.8558ZM5.13333 30.0667C5.13333 28.0449 6.7782 26.4 8.8 26.4C10.8218 26.4 12.4667 28.0449 12.4667 30.0667C12.4667 32.0885 10.8218 33.7333 8.8 33.7333C6.7782 33.7333 5.13333 32.0885 5.13333 30.0667ZM16.1333 42.5333H1.46667V40.3333C1.46667 37.5034 3.76933 35.2 6.6 35.2H11C13.8307 35.2 16.1333 37.5034 16.1333 40.3333V42.5333Z" fill="#435059"/>
<path d="M38.651 33.8558C39.6813 32.9164 40.3332 31.5678 40.3332 30.0667C40.3332 27.2367 38.0306 24.9333 35.1999 24.9333C32.3692 24.9333 30.0666 27.2367 30.0666 30.0667C30.0666 31.5678 30.7185 32.9164 31.7488 33.8558C28.7062 34.4425 26.3999 37.1221 26.3999 40.3333V43.2667C26.3999 43.6722 26.7284 44 27.1332 44H43.2666C43.6714 44 43.9999 43.6722 43.9999 43.2667V40.3333C43.9999 37.1221 41.6936 34.4425 38.651 33.8558ZM31.5332 30.0667C31.5332 28.0449 33.1781 26.4 35.1999 26.4C37.2217 26.4 38.8666 28.0449 38.8666 30.0667C38.8666 32.0885 37.2217 33.7333 35.1999 33.7333C33.1781 33.7333 31.5332 32.0885 31.5332 30.0667ZM42.5332 42.5333H27.8666V40.3333C27.8666 37.5034 30.1692 35.2 32.9999 35.2H37.3999C40.2306 35.2 42.5332 37.5034 42.5332 40.3333V42.5333Z" fill="#435059"/>
<path d="M4.41393 23.4431L2.94873 23.5003C2.96853 24.0056 3.00886 24.5174 3.069 25.0205L4.5254 24.846C4.46966 24.3818 4.43226 23.9095 4.41393 23.4431Z" fill="#435059"/>
<path d="M3.06826 20.4578C3.00886 20.9579 2.9678 21.469 2.94873 21.9772L4.41393 22.0344C4.43226 21.5651 4.46966 21.0936 4.52466 20.6308L3.06826 20.4578Z" fill="#435059"/>
<path d="M10.4421 7.56665C10.041 7.87245 9.64573 8.19952 9.2666 8.53978L10.2471 9.63098C10.5961 9.31712 10.9606 9.01498 11.3309 8.73338L10.4421 7.56665Z" fill="#435059"/>
<path d="M4.74244 14.6152C4.52684 15.0736 4.32737 15.5458 4.14844 16.0218L5.52124 16.5373C5.68624 16.0988 5.8703 15.6632 6.06904 15.2415L4.74244 14.6152Z" fill="#435059"/>
<path d="M3.66891 17.4702C3.52957 17.9549 3.40857 18.4543 3.30811 18.9515L4.74617 19.2412C4.83857 18.7829 4.95004 18.3223 5.0791 17.8743L3.66891 17.4702Z" fill="#435059"/>
<path d="M8.17435 9.60449C7.82308 9.97409 7.48575 10.3591 7.16895 10.75L8.30928 11.6725C8.60115 11.3117 8.91355 10.9553 9.23768 10.6143L8.17435 9.60449Z" fill="#435059"/>
<path d="M13.0041 5.9187C12.5604 6.15557 12.1182 6.4159 11.6885 6.69237L12.4834 7.92583C12.8794 7.6699 13.2871 7.4301 13.6949 7.2123L13.0041 5.9187Z" fill="#435059"/>
<path d="M6.25833 11.9717C5.9716 12.3904 5.6988 12.8245 5.44727 13.2638L6.7196 13.9927C6.95133 13.5879 7.2036 13.1868 7.46833 12.8011L6.25833 11.9717Z" fill="#435059"/>
<path d="M18.5255 39.9902L18.2358 41.4283C18.7294 41.528 19.2368 41.608 19.7436 41.6674L19.9137 40.211C19.448 40.156 18.9802 40.0819 18.5255 39.9902Z" fill="#435059"/>
<path d="M25.5208 39.9812C25.0654 40.0736 24.5982 40.1491 24.1304 40.2063L24.3071 41.6627C24.8131 41.6011 25.3191 41.519 25.8119 41.4193L25.5208 39.9812Z" fill="#435059"/>
<path d="M22.7282 40.3186C22.2595 40.3369 21.7858 40.3391 21.3201 40.3208L21.2622 41.786C21.5064 41.7963 21.7528 41.8007 22.0021 41.8007C22.2647 41.7992 22.5265 41.7941 22.7868 41.7838L22.7282 40.3186Z" fill="#435059"/>
<path d="M34.7366 8.54565L33.7568 9.63685C34.1059 9.95072 34.4447 10.2807 34.7652 10.6181L35.83 9.60972C35.4824 9.24305 35.115 8.88519 34.7366 8.54565Z" fill="#435059"/>
<path d="M36.8337 10.7544L35.6934 11.6769C35.986 12.0385 36.269 12.4191 36.5345 12.8063L37.7438 11.9769C37.4563 11.5581 37.1505 11.1467 36.8337 10.7544Z" fill="#435059"/>
<path d="M41.0511 21.9795L39.5859 22.0367C39.5955 22.2677 39.5999 22.5009 39.5999 22.7334C39.5999 22.9717 39.5955 23.2086 39.5859 23.4454L41.0511 23.5026C41.0614 23.2474 41.0665 22.9908 41.0665 22.7319C41.0665 22.4804 41.0614 22.2288 41.0511 21.9795Z" fill="#435059"/>
<path d="M38.5558 13.2676L37.2827 13.9972C37.5152 14.4028 37.7337 14.823 37.9332 15.2454L39.2598 14.6191C39.0442 14.1615 38.8073 13.7068 38.5558 13.2676Z" fill="#435059"/>
<path d="M39.8533 16.0249L38.4805 16.5412C38.6447 16.9782 38.7929 17.4278 38.9219 17.8766L40.3321 17.4725C40.1928 16.9856 40.0315 16.4986 39.8533 16.0249Z" fill="#435059"/>
<path d="M40.6912 18.9543L39.2539 19.2433C39.3463 19.7023 39.4211 20.1702 39.4754 20.6337L40.9318 20.4606C40.8724 19.959 40.7917 19.4523 40.6912 18.9543Z" fill="#435059"/>
<path d="M32.3157 6.69531L31.5215 7.92878C31.9131 8.18105 32.3003 8.45311 32.6736 8.73838L33.5638 7.57165C33.1598 7.26291 32.7403 6.96885 32.3157 6.69531Z" fill="#435059"/>
<path d="M29.6294 5.25513L29.042 6.59859C29.4695 6.78559 29.8949 6.99239 30.3077 7.21386L31.0015 5.92173C30.5549 5.68119 30.0929 5.45679 29.6294 5.25513Z" fill="#435059"/>
</svg>
