<svg width="50" height="50" viewBox="0 0 50 50" fill="none" xmlns="http://www.w3.org/2000/svg">
<path d="M2.34375 15.625H13.3049C13.2905 15.8847 13.2812 16.145 13.2812 16.4063C13.2812 16.5089 13.3015 16.6104 13.3407 16.7052C13.38 16.8 13.4375 16.8861 13.5101 16.9587C13.5826 17.0312 13.6687 17.0888 13.7635 17.128C13.8583 17.1673 13.9599 17.1875 14.0625 17.1875H27.3438C27.4675 17.1875 27.5896 17.1581 27.6997 17.1017C27.8099 17.0453 27.9051 16.9635 27.9775 16.8631C28.0499 16.7626 28.0974 16.6464 28.1161 16.5241C28.1347 16.4017 28.124 16.2766 28.0849 16.1592L24.8769 6.53512C25.2623 6.23539 25.5444 5.82272 25.6838 5.3548C25.8232 4.88688 25.8128 4.38711 25.6543 3.92534C25.4957 3.46357 25.1968 3.0629 24.7993 2.77933C24.4019 2.49576 23.9258 2.34347 23.4375 2.34376H15.5367C13.993 2.3421 12.4729 2.72242 11.1119 3.45083C9.75087 4.17923 8.59121 5.23307 7.7363 6.51842L7.39439 7.03126H2.34375C2.24115 7.03125 2.13956 7.05146 2.04478 7.09072C1.94999 7.12998 1.86386 7.18753 1.79132 7.26007C1.71877 7.33262 1.66122 7.41874 1.62196 7.51353C1.5827 7.60832 1.5625 7.70991 1.5625 7.81251V14.8438C1.5625 14.9464 1.5827 15.0479 1.62196 15.1427C1.66122 15.2375 1.71877 15.3236 1.79132 15.3962C1.86386 15.4687 1.94999 15.5263 2.04478 15.5655C2.13956 15.6048 2.24115 15.625 2.34375 15.625ZM14.868 15.625C14.9865 13.6989 15.5508 11.8266 16.5165 10.1558L18.7496 10.1563H18.75C19.125 10.1564 19.4946 10.0665 19.8277 9.89415C20.1607 9.7218 20.4475 9.47202 20.664 9.16581C20.8805 8.85959 21.0203 8.50589 21.0716 8.13443C21.123 7.76297 21.0845 7.38459 20.9593 7.03111L23.3952 7.03121L26.2598 15.625H14.868ZM9.03635 7.38516C9.74877 6.31403 10.7152 5.43582 11.8494 4.82882C12.9836 4.22181 14.2503 3.90487 15.5367 3.90626H23.4375C23.6446 3.90649 23.8431 3.98891 23.9894 4.1354C24.1357 4.28188 24.2179 4.48046 24.2179 4.68751C24.2179 4.89455 24.1357 5.09312 23.9894 5.2396C23.843 5.38608 23.6445 5.46848 23.4375 5.46871L17.969 5.46851V5.46876H14.8438V7.03126H18.7501C18.9573 7.03126 19.156 7.11358 19.3025 7.2601C19.449 7.40661 19.5313 7.60533 19.5313 7.81253C19.5313 8.01973 19.449 8.21844 19.3025 8.36495C19.156 8.51146 18.9572 8.59376 18.75 8.59376H18.7499L15.6253 8.59314H15.6251C15.4965 8.59313 15.3699 8.62489 15.2565 8.68559C15.1431 8.74629 15.0464 8.83405 14.9751 8.94108C14.5663 9.55576 14.0118 10.0597 13.361 10.4081C12.7101 10.7564 11.9832 10.9383 11.2451 10.9375H10.1562V12.5H11.2451C12.2237 12.5 13.1876 12.2622 14.0539 11.807C13.7998 12.5416 13.6072 13.296 13.4781 14.0625H8.59375V8.04906L9.03635 7.38516ZM3.125 8.59376H7.03125V14.0625H3.125V8.59376Z" fill="#435059"/>
<path d="M46.0938 17.9688C45.827 17.9686 45.5621 18.0143 45.3107 18.1038C45.3112 18.0587 45.3125 18.0139 45.3125 17.9688C45.3125 10.2147 39.0041 3.90626 31.25 3.90626C29.7384 3.9048 28.2365 4.14716 26.8021 4.62399C26.7047 4.65639 26.6147 4.70766 26.5371 4.77487C26.4596 4.84208 26.396 4.92392 26.3501 5.01569C26.3042 5.10747 26.2768 5.2074 26.2695 5.30977C26.2623 5.41213 26.2752 5.51493 26.3077 5.61228L30.383 17.8384L22.8936 28.3233C22.7732 28.4918 22.7247 28.7012 22.7586 28.9055C22.7926 29.1098 22.9063 29.2922 23.0747 29.4128C25.4574 31.1221 28.3176 32.0382 31.25 32.0313C32.3014 32.0315 33.3496 31.9143 34.375 31.6819V47.6563C34.375 47.7589 34.3952 47.8604 34.4345 47.9552C34.4737 48.05 34.5313 48.1361 34.6038 48.2087C34.6764 48.2812 34.7625 48.3388 34.8573 48.378C34.9521 48.4173 35.0537 48.4375 35.1563 48.4375H42.9688C43.0714 48.4375 43.1729 48.4173 43.2677 48.378C43.3625 48.3388 43.4486 48.2812 43.5212 48.2087C43.5937 48.1361 43.6513 48.05 43.6905 47.9552C43.7298 47.8604 43.75 47.7589 43.75 47.6563V36.3556L44.2628 36.0137C45.5482 35.1588 46.602 33.9991 47.3304 32.6381C48.0588 31.2771 48.4392 29.757 48.4375 28.2133V20.3125C48.4368 19.6911 48.1897 19.0954 47.7503 18.656C47.3109 18.2166 46.7152 17.9695 46.0938 17.9688ZM24.6328 28.5766L31.8857 18.4228C31.9574 18.3226 32.0042 18.2068 32.0226 18.0849C32.0409 17.9631 32.0301 17.8386 31.9911 17.7217L28.0449 5.88303C29.8958 5.39453 31.834 5.33721 33.7105 5.71548C35.587 6.09375 37.3516 6.89753 38.8686 8.06495C40.3857 9.23236 41.6146 10.7323 42.4609 12.4493C43.3071 14.1663 43.7482 16.0545 43.75 17.9688C43.7534 19.5768 43.444 21.1701 42.8391 22.66C42.2408 22.6931 41.6779 22.9541 41.2661 23.3894C40.8543 23.8247 40.6249 24.4012 40.625 25.0004L40.6252 26.2356C38.6676 28.455 35.9862 29.9083 33.058 30.3369C30.1298 30.7655 27.1444 30.1418 24.6328 28.5766ZM42.1875 46.875H35.9375V36.7188H42.1875V46.875ZM46.875 28.2133C46.8764 29.4997 46.5594 30.7665 45.9524 31.9007C45.3454 33.0349 44.4672 34.0012 43.396 34.7137L42.7322 35.1563H35.9375V31.2299C36.9989 30.8555 38.0112 30.3544 38.9525 29.7374C38.5113 30.5932 38.2812 31.5421 38.2813 32.5049V33.5938H39.8438V32.5049C39.843 31.7668 40.0248 31.0399 40.3732 30.389C40.7215 29.7382 41.2255 29.1837 41.8402 28.7749C41.9472 28.7036 42.035 28.6069 42.0957 28.4935C42.1564 28.38 42.1882 28.2534 42.1881 28.1247L42.1875 25.0001C42.1875 24.8975 42.2077 24.7959 42.2469 24.7011C42.2862 24.6063 42.3437 24.5202 42.4162 24.4476C42.5627 24.3011 42.7614 24.2187 42.9686 24.2187C43.1758 24.2186 43.3745 24.3009 43.5211 24.4474C43.6676 24.5939 43.75 24.7926 43.75 24.9998V28.9063H45.3125V25.781H45.3127L45.3126 20.3126C45.3124 20.2099 45.3326 20.1082 45.3718 20.0133C45.411 19.9184 45.4685 19.8322 45.541 19.7596C45.6136 19.6869 45.6997 19.6293 45.7946 19.59C45.8894 19.5507 45.9911 19.5304 46.0937 19.5304C46.1964 19.5304 46.2981 19.5506 46.3929 19.5899C46.4877 19.6292 46.5739 19.6869 46.6465 19.7595C46.719 19.8321 46.7766 19.9183 46.8158 20.0132C46.855 20.1081 46.8751 20.2098 46.875 20.3125V28.2133Z" fill="#435059"/>
<path d="M2.34375 48.4375H9.375C9.52423 48.4375 9.67034 48.3948 9.79605 48.3143C9.92176 48.2339 10.0218 48.1191 10.0843 47.9836L14.7134 37.9539L20.8649 31.8024C20.9375 31.7299 20.995 31.6438 21.0343 31.549C21.0735 31.4542 21.0937 31.3526 21.0937 31.25V27.4376L26.417 19.9853C26.5004 19.8685 26.55 19.731 26.5604 19.5878C26.5708 19.4447 26.5416 19.3014 26.4759 19.1738C26.4102 19.0461 26.3106 18.9391 26.1881 18.8643C26.0655 18.7896 25.9248 18.75 25.7812 18.75H12.5C12.3974 18.75 12.2958 18.7702 12.201 18.8095C12.1062 18.8487 12.0201 18.9063 11.9476 18.9788C11.875 19.0514 11.8175 19.1375 11.7782 19.2323C11.7389 19.3271 11.7187 19.4287 11.7187 19.5313C11.719 20.7893 11.8887 22.0416 12.2234 23.2543L10.7431 24.3646L10.3537 21.6389C10.2658 21.0242 9.94835 20.4656 9.46513 20.0757C8.98192 19.6857 8.36888 19.4934 7.74951 19.5374C7.13014 19.5814 6.55046 19.8585 6.12725 20.3129C5.70404 20.7673 5.46874 21.3651 5.46875 21.9861V33.3434L1.70803 38.6084C1.61338 38.7409 1.5625 38.8997 1.5625 39.0625V47.6563C1.5625 47.7588 1.5827 47.8604 1.62196 47.9552C1.66122 48.05 1.71877 48.1361 1.79132 48.2087C1.86386 48.2812 1.94999 48.3388 2.04477 48.378C2.13956 48.4173 2.24115 48.4375 2.34375 48.4375ZM24.2631 20.3125L17.8937 29.2294C16.5571 28.1383 15.4598 26.7833 14.6705 25.2491C13.8811 23.7148 13.4165 22.0343 13.3059 20.3125H24.2631ZM7.92355 21.0938C8.13808 21.0947 8.34518 21.1725 8.50726 21.313C8.66933 21.4536 8.77564 21.6476 8.80689 21.8598L9.38286 25.8917C9.39736 25.9933 9.43172 26.091 9.484 26.1793C9.53627 26.2676 9.60543 26.3447 9.68752 26.4062C10.5588 27.063 11.2662 27.9126 11.7542 28.8885C12.2421 29.8645 12.4974 30.9401 12.5 32.0313H14.0625C14.0595 30.8707 13.8228 29.7225 13.3665 28.6554C12.9101 27.5883 12.2435 26.6241 11.4064 25.8202L12.7523 24.8108C13.7547 27.2831 15.4376 29.4205 17.6057 30.9751C17.6892 31.0348 17.7836 31.0776 17.8836 31.1008C17.9836 31.1241 18.0872 31.1274 18.1885 31.1106C18.2898 31.0938 18.3868 31.0571 18.4739 31.0028C18.561 30.9485 18.6366 30.8775 18.6963 30.794L19.5312 29.625V30.9264L13.9082 36.5494L7.03125 33.1109V21.9861C7.03152 21.7495 7.12562 21.5227 7.2929 21.3554C7.46018 21.1881 7.68698 21.094 7.92355 21.0938ZM3.125 39.3129L6.49771 34.5911L13.0358 37.8601L8.87513 46.875H3.125V39.3129Z" fill="#435059"/>
</svg>
