<svg width="43" height="42" viewBox="0 0 43 42" fill="none" xmlns="http://www.w3.org/2000/svg">
<path d="M21.4757 6.11443e-10C20.7229 6.11443e-10 19.9705 0.0404716 19.222 0.121152C18.5359 0.191233 17.8582 0.306165 17.1897 0.445626C17.0603 0.472695 16.9308 0.501252 16.8014 0.531124C12.8623 1.42798 9.26537 3.44202 6.44209 6.33171C6.17955 6.60082 5.92252 6.8779 5.6712 7.16286C-1.95533 15.9184 -1.04008 29.1987 7.71554 36.8252C16.0979 44.1267 28.7155 43.6408 36.5116 35.7166C36.7747 35.4474 37.0316 35.1704 37.2825 34.8854C40.6482 31.0525 42.503 26.125 42.5 21.0241C42.5 9.41272 33.0871 -8.76003e-05 21.4757 6.11443e-10ZM7.37626 7.38292C7.48699 7.26799 7.60192 7.15796 7.71475 7.04653C7.8451 6.91828 7.97475 6.78933 8.1079 6.66529C8.22494 6.55596 8.34548 6.45084 8.46532 6.34432C8.60057 6.22448 8.73513 6.10464 8.87389 5.98901C8.99583 5.88599 9.12127 5.78718 9.24601 5.68766C9.38618 5.57553 9.52634 5.46341 9.6707 5.35548C9.79825 5.25947 9.9279 5.16626 10.0582 5.07516C10.2033 4.97144 10.3491 4.86492 10.497 4.76821C10.6294 4.6785 10.7633 4.5916 10.8978 4.5054C11.0478 4.40939 11.1985 4.31478 11.3505 4.22508C11.4875 4.14335 11.6253 4.06293 11.764 3.984C11.9192 3.8957 12.0749 3.8095 12.2315 3.7254C12.3716 3.65068 12.5118 3.57753 12.6519 3.50605C12.8117 3.42546 12.9729 3.34767 13.1348 3.27128C13.275 3.2047 13.4207 3.13813 13.5651 3.07506C13.7298 3.00497 13.8966 2.93489 14.0634 2.86481C14.2084 2.80524 14.3528 2.74708 14.4993 2.69101C14.6689 2.62654 14.8406 2.56627 15.0123 2.506C15.1587 2.45484 15.3052 2.40368 15.4538 2.35533C15.6283 2.29926 15.8042 2.2474 15.9808 2.19624C16.1286 2.15349 16.2751 2.10934 16.4237 2.0694C16.4804 2.05468 16.5372 2.04277 16.594 2.02805C14.5196 4.04226 12.9802 6.54204 12.1151 9.30103C10.4518 8.86232 8.84147 8.24263 7.31319 7.453C7.33632 7.42847 7.35594 7.40394 7.37626 7.38292ZM6.3685 8.51122C8.05193 9.42332 9.83706 10.1338 11.6869 10.6277C10.7801 13.7809 10.3041 17.0424 10.272 20.3233H1.86932C2.02201 15.9968 3.60417 11.8429 6.3685 8.51122ZM6.3685 33.537C3.60434 30.2052 2.02218 26.0514 1.86932 21.7249H10.272C10.3041 25.0059 10.78 28.2673 11.6869 31.4206C9.83714 31.9147 8.05201 32.625 6.3685 33.537ZM16.4195 39.9817C16.2779 39.9459 16.1314 39.8997 15.9857 39.8569C15.8084 39.8051 15.6304 39.7532 15.4552 39.6964C15.3073 39.6488 15.1615 39.5976 15.0158 39.5465C14.8434 39.4869 14.671 39.4259 14.5007 39.3608C14.3549 39.3054 14.2112 39.2472 14.0669 39.1884C13.8994 39.1183 13.7319 39.0482 13.5658 38.9781C13.4228 38.915 13.2806 38.8501 13.139 38.7833C12.9757 38.7062 12.8131 38.6277 12.6484 38.5464C12.5083 38.4763 12.3681 38.4063 12.2279 38.3299C12.0696 38.2451 11.9126 38.1582 11.7556 38.0685C11.6154 37.9907 11.4823 37.9108 11.347 37.8295C11.1929 37.737 11.0415 37.6417 10.8901 37.5443C10.757 37.4595 10.6238 37.3733 10.4928 37.285C10.3435 37.184 10.1956 37.0789 10.0491 36.9738C9.92089 36.882 9.79264 36.7902 9.6665 36.6935C9.52143 36.5842 9.37917 36.4713 9.2376 36.3578C9.11356 36.259 8.99022 36.1609 8.86898 36.0593C8.72882 35.9429 8.59356 35.8217 8.45761 35.7011C8.33847 35.5953 8.21863 35.4909 8.1023 35.383C7.96844 35.2582 7.83879 35.1286 7.70844 35.0003C7.59561 34.8889 7.48068 34.7789 7.36995 34.6646C7.34963 34.6429 7.33001 34.6205 7.30968 34.5995C8.83788 33.8095 10.4482 33.1895 12.1116 32.7507C12.9768 35.5096 14.5162 38.0093 16.5905 40.0237C16.5337 40.009 16.4762 39.9971 16.4195 39.9817ZM20.775 40.5914C17.7762 40.1653 15.1475 37.0355 13.4936 32.4137C15.8848 31.8782 18.3249 31.591 20.775 31.5566V40.5914ZM20.775 30.1549C18.1759 30.1891 15.5877 30.4978 13.0535 31.0758C12.1735 28.0354 11.7094 24.8899 11.6736 21.7249H20.775V30.1549ZM20.775 20.3233H11.6736C11.7093 17.1584 12.1735 14.0128 13.0535 10.9725C15.5877 11.5504 18.176 11.8591 20.775 11.8933V20.3233ZM20.775 10.4917C18.3248 10.4575 15.8848 10.1703 13.4936 9.63461C15.1475 5.01279 17.7762 1.88298 20.775 1.45689V10.4917ZM36.5831 8.51122C39.3473 11.843 40.9294 15.9969 41.0823 20.3233H32.6796C32.6475 17.0424 32.1716 13.7809 31.2647 10.6277C33.1145 10.1335 34.8996 9.42314 36.5831 8.51122ZM26.5265 2.06589C26.6737 2.10233 26.8202 2.14859 26.9659 2.19134C27.1432 2.2432 27.3212 2.29506 27.4964 2.35182C27.6443 2.39948 27.7901 2.45064 27.9358 2.50179C28.1082 2.56136 28.2806 2.62233 28.4509 2.68751C28.5967 2.74287 28.7404 2.80104 28.8847 2.85991C29.0522 2.92999 29.2197 3.00007 29.3858 3.07015C29.5288 3.13322 29.671 3.19813 29.8126 3.26497C29.9759 3.34206 30.1385 3.42055 30.3032 3.50185C30.4433 3.57193 30.5835 3.64201 30.7236 3.7184C30.882 3.80319 31.039 3.89009 31.196 3.9798C31.3362 4.05759 31.4693 4.13748 31.6046 4.21877C31.7587 4.31128 31.9101 4.40659 32.0615 4.504C32.1946 4.5888 32.3278 4.675 32.4588 4.7633C32.6081 4.86422 32.7553 4.96864 32.9018 5.07376C33.0307 5.16556 33.159 5.25807 33.2858 5.35408C33.4302 5.46271 33.5717 5.57554 33.714 5.68907C33.8373 5.78718 33.9614 5.88529 34.0826 5.98761C34.2228 6.10394 34.358 6.22518 34.494 6.34572C34.6131 6.45154 34.733 6.55597 34.8493 6.66389C34.9832 6.78863 35.1128 6.91828 35.2431 7.04653C35.356 7.15796 35.4709 7.26798 35.5816 7.38222C35.602 7.40394 35.6216 7.42637 35.6419 7.44739C34.1137 8.23738 32.5034 8.85733 30.84 9.29612C29.9731 6.53687 28.4317 4.03735 26.3555 2.02384C26.4123 2.03856 26.4697 2.05047 26.5265 2.06589ZM22.1766 1.45689C25.1754 1.88298 27.8041 5.01279 29.458 9.63461C27.0668 10.17 24.6267 10.4573 22.1766 10.4917V1.45689ZM22.1766 11.8933C24.7757 11.8591 27.3639 11.5504 29.8981 10.9725C30.778 14.0128 31.2422 17.1584 31.278 20.3233H22.1766V11.8933ZM22.1766 21.7249H31.278C31.2423 24.8899 30.7781 28.0354 29.8981 31.0758C27.3639 30.4979 24.7757 30.1892 22.1766 30.1549V21.7249ZM22.1766 40.5914V31.5566C24.6268 31.5907 27.0668 31.878 29.458 32.4137C27.8041 37.0355 25.1754 40.1653 22.1766 40.5914ZM35.5753 34.6653C35.4646 34.7796 35.3504 34.8896 35.2375 35.001C35.1072 35.1293 34.9768 35.2589 34.843 35.3837C34.7267 35.4923 34.6068 35.5939 34.4877 35.7025C34.3517 35.8231 34.2165 35.9436 34.0777 36.06C33.9551 36.1623 33.8303 36.2611 33.7056 36.3606C33.5654 36.4727 33.4253 36.5849 33.2809 36.6928C33.1533 36.7888 33.0237 36.882 32.8933 36.9731C32.7483 37.0768 32.6025 37.1833 32.4546 37.2801C32.3222 37.3698 32.1883 37.4567 32.0538 37.5422C31.9038 37.6389 31.7527 37.7323 31.6004 37.8225C31.4602 37.9045 31.3263 37.9844 31.1883 38.0636C31.0331 38.1519 30.8771 38.2381 30.7201 38.3222C30.58 38.3969 30.4398 38.47 30.2997 38.5415C30.1399 38.6221 29.9787 38.6999 29.8168 38.7763C29.6766 38.8429 29.5309 38.9094 29.3865 38.9725C29.2218 39.0426 29.055 39.1127 28.8882 39.1828C28.7432 39.2416 28.5988 39.3005 28.453 39.3559C28.282 39.421 28.1103 39.482 27.9379 39.5416C27.7922 39.5927 27.6464 39.6439 27.4985 39.6915C27.3233 39.7483 27.1481 39.8002 26.9694 39.8513C26.823 39.8948 26.6758 39.9382 26.5279 39.9782C26.4711 39.9929 26.4144 40.0048 26.3576 40.0195C28.432 38.0053 29.9714 35.5055 30.8365 32.7465C32.4998 33.1852 34.1101 33.8049 35.6384 34.5946C35.6153 34.6198 35.5957 34.6443 35.5753 34.6653ZM36.5831 33.537C34.8997 32.6249 33.1145 31.9145 31.2647 31.4206C32.1715 28.2673 32.6475 25.0059 32.6796 21.7249H41.0823C40.9297 26.0514 39.3474 30.2053 36.5831 33.537Z" fill="#435059"/>
</svg>
