<svg width="44" height="44" viewBox="0 0 44 44" fill="none" xmlns="http://www.w3.org/2000/svg">
<path d="M32.5361 6.24195C32.8921 6.24195 33.1807 5.95338 33.1807 5.59741C33.1807 5.24145 32.8921 4.95288 32.5361 4.95288C32.1802 4.95288 31.8916 5.24145 31.8916 5.59741C31.8916 5.95338 32.1802 6.24195 32.5361 6.24195Z" fill="#435059"/>
<path d="M35.9663 6.24195C36.3223 6.24195 36.6108 5.95338 36.6108 5.59741C36.6108 5.24145 36.3223 4.95288 35.9663 4.95288C35.6103 4.95288 35.3218 5.24145 35.3218 5.59741C35.3218 5.95338 35.6103 6.24195 35.9663 6.24195Z" fill="#435059"/>
<path d="M39.3965 6.24195C39.7524 6.24195 40.041 5.95338 40.041 5.59741C40.041 5.24145 39.7524 4.95288 39.3965 4.95288C39.0405 4.95288 38.752 5.24145 38.752 5.59741C38.752 5.95338 39.0405 6.24195 39.3965 6.24195Z" fill="#435059"/>
<path d="M9.49609 20.7253C9.85206 20.7253 10.1406 20.4368 10.1406 20.0808C10.1406 19.7248 9.85206 19.4363 9.49609 19.4363C9.14013 19.4363 8.85156 19.7248 8.85156 20.0808C8.85156 20.4368 9.14013 20.7253 9.49609 20.7253Z" fill="#435059"/>
<path d="M9.49609 25.1226C9.85206 25.1226 10.1406 24.834 10.1406 24.478C10.1406 24.1221 9.85206 23.8335 9.49609 23.8335C9.14013 23.8335 8.85156 24.1221 8.85156 24.478C8.85156 24.834 9.14013 25.1226 9.49609 25.1226Z" fill="#435059"/>
<path d="M9.49609 29.52C9.85206 29.52 10.1406 29.2315 10.1406 28.8755C10.1406 28.5195 9.85206 28.231 9.49609 28.231C9.14013 28.231 8.85156 28.5195 8.85156 28.8755C8.85156 29.2315 9.14013 29.52 9.49609 29.52Z" fill="#435059"/>
<path d="M9.49609 33.9175C9.85206 33.9175 10.1406 33.6289 10.1406 33.2729C10.1406 32.917 9.85206 32.6284 9.49609 32.6284C9.14013 32.6284 8.85156 32.917 8.85156 33.2729C8.85156 33.6289 9.14013 33.9175 9.49609 33.9175Z" fill="#435059"/>
<path d="M9.49609 38.3149C9.85206 38.3149 10.1406 38.0264 10.1406 37.6704C10.1406 37.3144 9.85206 37.0259 9.49609 37.0259C9.14013 37.0259 8.85156 37.3144 8.85156 37.6704C8.85156 38.0264 9.14013 38.3149 9.49609 38.3149Z" fill="#435059"/>
<path d="M12.2891 20.7253H34.4609C34.817 20.7253 35.1055 20.4368 35.1055 20.0808C35.1055 19.7249 34.817 19.4363 34.4609 19.4363H12.2891C11.933 19.4363 11.6445 19.7249 11.6445 20.0808C11.6445 20.4368 11.933 20.7253 12.2891 20.7253Z" fill="#435059"/>
<path d="M34.4609 23.8335H12.2891C11.933 23.8335 11.6445 24.1221 11.6445 24.478C11.6445 24.834 11.933 25.1226 12.2891 25.1226H34.4609C34.817 25.1226 35.1055 24.834 35.1055 24.478C35.1055 24.1221 34.817 23.8335 34.4609 23.8335Z" fill="#435059"/>
<path d="M34.4609 28.231H12.2891C11.933 28.231 11.6445 28.5195 11.6445 28.8755C11.6445 29.2314 11.933 29.52 12.2891 29.52H34.4609C34.817 29.52 35.1055 29.2314 35.1055 28.8755C35.1055 28.5195 34.817 28.231 34.4609 28.231Z" fill="#435059"/>
<path d="M34.4609 32.6284H12.2891C11.933 32.6284 11.6445 32.917 11.6445 33.2729C11.6445 33.6289 11.933 33.9175 12.2891 33.9175H34.4609C34.817 33.9175 35.1055 33.6289 35.1055 33.2729C35.1055 32.917 34.817 32.6284 34.4609 32.6284Z" fill="#435059"/>
<path d="M34.4609 37.0259H12.2891C11.933 37.0259 11.6445 37.3145 11.6445 37.6704C11.6445 38.0264 11.933 38.3149 12.2891 38.3149H34.4609C34.817 38.3149 35.1055 38.0264 35.1055 37.6704C35.1055 37.3145 34.817 37.0259 34.4609 37.0259Z" fill="#435059"/>
<path d="M40.9256 1.19751H17.1398C16.7838 1.19751 16.4953 1.48609 16.4953 1.84204C16.4953 2.19799 16.7838 2.48657 17.1398 2.48657H40.9256C41.91 2.48657 42.7109 3.28751 42.7109 4.27201V8.70819H1.28906V4.27201C1.28906 3.28751 2.09 2.48657 3.0745 2.48657H17.6966C18.0526 2.48657 17.6966 2.19799 17.6966 1.84204C17.6966 1.48609 17.5951 1.19751 17.2391 1.19751H3.0745C1.37921 1.19751 0 2.57672 0 4.27201V39.7281C0 41.4234 1.37921 42.8026 3.0745 42.8026H40.9255C42.6208 42.8026 43.9999 41.4234 43.9999 39.7281V4.27201C44 2.57672 42.6208 1.19751 40.9256 1.19751ZM6.77531 16.1754H23.0419C23.3979 16.1754 23.6864 15.8868 23.6864 15.5309C23.6864 15.1749 23.3979 14.8863 23.0419 14.8863H6.77531V13.0228C6.77531 12.9527 6.83229 12.8957 6.90233 12.8957H37.0978C37.1679 12.8957 37.2249 12.9526 37.2249 13.0228V14.8863H25.62C25.2641 14.8863 24.9755 15.1749 24.9755 15.5309C24.9755 15.8868 25.2641 16.1754 25.62 16.1754H37.2248V41.5135H6.77531V16.1754ZM40.9256 41.5135H38.5138V13.0228C38.5138 12.2419 37.8785 11.6066 37.0977 11.6066H6.90224C6.12141 11.6066 5.48625 12.2419 5.48625 13.0228V41.5135H3.0745C2.09 41.5135 1.28906 40.7126 1.28906 39.7281V9.99734H42.7109V39.7281C42.7109 40.7126 41.91 41.5135 40.9256 41.5135Z" fill="#435059"/>
</svg>
