<svg width="48" height="48" viewBox="0 0 48 48" fill="none" xmlns="http://www.w3.org/2000/svg">
<g clip-path="url(#clip0_125:4316)">
<path d="M44.4701 14.9701H44.4397C44.4349 13.0431 43.3521 12.7358 41.7144 12.2715L41.6814 12.2619C41.1592 12.1125 40.6337 11.9869 40.0898 11.88C40.0972 11.747 40.1012 11.6108 40.1012 11.4709C40.0986 9.61277 39.4669 8.0106 38.2749 6.83763C37.0309 5.61338 35.2244 4.9293 33.3058 4.95274C31.3934 4.92454 29.5833 5.61302 28.3396 6.83689C27.1472 8.01023 26.5155 9.61277 26.5129 11.4709C26.5129 11.702 26.5236 11.9228 26.5433 12.1352C25.5103 12.3696 24.6577 12.6509 23.9985 12.975C22.3286 12.1543 19.4513 11.6126 15.6281 11.4046C15.2391 11.3845 14.9033 11.6826 14.8821 12.0733C14.8608 12.4641 15.1604 12.7981 15.5511 12.8193C20.0955 13.0669 22.2821 13.733 23.2903 14.2065V40.44C21.3944 39.7127 18.438 39.2041 15.3157 39.096C12.9606 39.014 8.66052 39.1059 4.97717 40.4876V14.9829C4.97717 14.3446 5.11304 14.2373 5.19434 14.1728C5.42944 13.9868 5.94946 13.8392 6.66907 13.6349L6.70459 13.6246C8.26465 13.1819 9.84009 12.9501 12.1425 12.8248C12.5332 12.8036 12.8324 12.4696 12.8112 12.0788C12.7899 11.6881 12.4537 11.3871 12.0652 11.4098C9.65076 11.5412 7.9856 11.7881 6.3175 12.2616L6.28198 12.2718C4.64648 12.7362 3.56506 13.0438 3.5603 14.9701H3.52734C1.5824 14.9701 0 16.5532 0 18.4989V43.1599C0 45.4114 1.62012 47.6921 4.7168 47.695L23.9978 47.7192H23.9993L35 47.7112C35.3911 47.7108 34.5004 47.3933 34.5 47.0018C34.4996 46.6107 35.8907 46.2943 35.5 46.2943L24.7072 46.3012V44.1417H42.2699C43.4663 44.1417 44.4397 43.1518 44.4397 41.9353V16.3869H44.4697C45.635 16.3869 46.5831 17.3343 46.5831 18.4989V43.1599C46.5831 44.6599 45.5497 46.276 43.2814 46.2782L35.0424 46.2888C34.6509 46.2892 34.3341 46.607 34.3348 46.9981C34.3352 47.3893 34.6523 47.7057 35.0435 47.7057L43.2828 47.695C46.3799 47.6921 48 45.4114 48 43.1599V18.4989C48 16.5532 46.4165 14.9701 44.4701 14.9701ZM29.3331 7.84727C30.3109 6.88523 31.7574 6.34397 33.2952 6.36961H33.3164C34.8549 6.34324 36.3032 6.8856 37.281 7.84764C38.1969 8.74888 38.6821 10.0024 38.6843 11.4728C38.6865 13.3144 37.8798 14.2864 36.9459 15.4117C36.1315 16.3928 35.2211 17.49 35.0208 19.206H34.014V14.297H35.1259C35.517 14.297 35.8341 13.9798 35.8341 13.5887C35.8341 13.1972 35.517 12.8801 35.1259 12.8801H31.4139C31.0225 12.8801 30.7053 13.1972 30.7053 13.5887C30.7053 13.9798 31.0225 14.297 31.4139 14.297H32.5972V19.206H31.5934C31.3931 17.49 30.4827 16.3928 29.6682 15.4117C28.734 14.2864 27.9276 13.3144 27.9298 11.4728C27.932 10.0021 28.4172 8.74851 29.3331 7.84727ZM31.0953 20.6229H35.5188C36.0879 20.6229 36.5508 21.0854 36.5508 21.6538C36.5508 22.2207 36.0879 22.6821 35.5188 22.6821H31.0953C30.5262 22.6821 30.0634 22.2207 30.0634 21.6538C30.0634 21.0854 30.5262 20.6229 31.0953 20.6229ZM28.578 16.3166C29.3562 17.2541 30.0392 18.0792 30.1864 19.3814C29.2852 19.7429 28.6465 20.6251 28.6465 21.6538C28.6465 23.0022 29.7451 24.099 31.0953 24.099H35.5188C36.869 24.099 37.9677 23.0022 37.9677 21.6538C37.9677 20.6251 37.329 19.7429 36.4277 19.3814C36.575 18.0792 37.2579 17.2538 38.0361 16.3163C38.7246 15.4872 39.4779 14.5786 39.8558 13.2785C40.3458 13.376 40.8212 13.4895 41.2928 13.6246L41.3276 13.6345C42.0487 13.8388 42.5695 13.9868 42.8057 14.1732C42.887 14.2373 43.0228 14.3446 43.0228 14.9829V40.4876C39.338 39.1059 35.0383 39.0144 32.6825 39.096C29.5605 39.2041 26.6034 39.7131 24.7072 40.44V14.2069C25.1506 13.9981 25.8252 13.7528 26.8348 13.5217C27.2318 14.6936 27.9331 15.5399 28.578 16.3166ZM23.2903 41.9774V42.7248H5.72717C5.33752 42.7248 5.01672 42.4103 4.98083 42.01C10.8442 39.5582 20.1427 40.4906 23.2903 41.9774ZM1.41687 43.1599V18.4989C1.41687 17.3343 2.36389 16.3869 3.52734 16.3869H3.5603V41.9356C3.5603 43.1522 4.53259 44.1417 5.72754 44.1417H23.2903V46.3012L4.71826 46.2782C2.45032 46.276 1.41687 44.6599 1.41687 43.1599ZM42.2699 42.7248H24.7072V41.9778C27.8558 40.4913 37.1561 39.5593 43.0192 42.01C42.9818 42.4044 42.6541 42.7248 42.2699 42.7248Z" fill="#435059"/>
<path d="M20.5524 28.7717C19.4399 28.1261 17.2338 27.6724 14.7945 27.5878C13.1682 27.5317 10.0711 27.6064 7.60468 28.741C7.24909 28.9043 7.09345 29.3251 7.25678 29.6807C7.37616 29.9403 7.63287 30.093 7.90094 30.093C8.00018 30.093 8.10053 30.0721 8.19647 30.0282C11.9018 28.3242 18.134 29.0065 19.8409 29.9971C20.1793 30.1937 20.6129 30.0787 20.8095 29.74C21.0058 29.402 20.8908 28.9684 20.5524 28.7717Z" fill="#435059"/>
<path d="M20.5524 33.9715C19.4399 33.3259 17.2338 32.8722 14.7945 32.7876C13.1682 32.7312 10.0711 32.8063 7.60468 33.9408C7.24909 34.1041 7.09345 34.5249 7.25678 34.8805C7.37616 35.1401 7.63287 35.2928 7.90094 35.2928C8.00018 35.2928 8.10053 35.272 8.19647 35.228C11.9018 33.524 18.134 34.2063 19.8409 35.1969C20.1793 35.3932 20.6129 35.2786 20.8095 34.9398C21.0058 34.6018 20.8908 34.1682 20.5524 33.9715Z" fill="#435059"/>
<path d="M20.5524 23.5718C19.4394 22.9258 17.233 22.4717 14.7944 22.3871C13.1673 22.3303 10.0699 22.405 7.60423 23.541C7.24864 23.7047 7.09337 24.1255 7.25707 24.4811C7.37645 24.7404 7.63316 24.8931 7.90086 24.8931C8.00011 24.8931 8.10082 24.8722 8.19713 24.8283C11.8999 23.1225 18.1328 23.8054 19.8408 24.7971C20.1792 24.9934 20.6128 24.8784 20.8094 24.5401C21.0057 24.2017 20.8907 23.7681 20.5524 23.5718Z" fill="#435059"/>
<path d="M28.1594 29.9972C29.8648 29.0055 36.0952 28.3229 39.8005 30.0283C39.8965 30.0726 39.9972 30.0931 40.0964 30.0931C40.3645 30.0931 40.6208 29.9404 40.7406 29.6808C40.9039 29.3256 40.7483 28.9048 40.393 28.7411C37.9281 27.6066 34.8307 27.5315 33.2043 27.5883C30.7643 27.6725 28.5582 28.1262 27.4475 28.7722C27.1091 28.9689 26.9941 29.4025 27.1908 29.7408C27.3874 30.0792 27.821 30.1938 28.1594 29.9972Z" fill="#435059"/>
<path d="M40.3928 33.9408C37.9278 32.8063 34.8304 32.7312 33.204 32.7876C30.764 32.8722 28.5583 33.3259 27.4472 33.9719C27.1088 34.1686 26.9942 34.6022 27.1909 34.9405C27.3875 35.2789 27.8211 35.3935 28.1595 35.1969C29.8649 34.2052 36.0949 33.5226 39.8006 35.228C39.8965 35.2723 39.9973 35.2932 40.0961 35.2932C40.3646 35.2932 40.6209 35.1401 40.7403 34.8805C40.904 34.5253 40.7484 34.1045 40.3928 33.9408Z" fill="#435059"/>
<path d="M33.3108 3.55701C33.7023 3.55701 34.0194 3.23987 34.0194 2.84875V0.989868C34.0194 0.598389 33.7023 0.28125 33.3108 0.28125C32.9197 0.28125 32.6025 0.598389 32.6025 0.989868V2.84875C32.6025 3.23987 32.9197 3.55701 33.3108 3.55701Z" fill="#435059"/>
<path d="M26.7815 5.00713C26.9199 5.14519 27.1012 5.2144 27.2825 5.2144C27.4637 5.2144 27.645 5.14519 27.7834 5.00676C28.0603 4.7299 28.0599 4.2813 27.7831 4.00481L26.4655 2.68755C26.1886 2.41106 25.74 2.41106 25.4635 2.68791C25.1866 2.9644 25.1866 3.41301 25.4635 3.68987L26.7815 5.00713Z" fill="#435059"/>
<path d="M39.3393 5.2144C39.521 5.2144 39.7023 5.14519 39.8407 5.0064L41.1557 3.68913C41.4322 3.41228 41.4319 2.96367 41.155 2.68718C40.8782 2.41106 40.4296 2.41106 40.1531 2.68828L38.838 4.00517C38.5615 4.28203 38.5619 4.73064 38.8387 5.00713C38.9772 5.14519 39.1584 5.2144 39.3393 5.2144Z" fill="#435059"/>
<path d="M7.25678 19.278C7.37616 19.5376 7.63287 19.6907 7.90094 19.6907C8.00018 19.6907 8.10053 19.6698 8.19647 19.6259C11.8981 17.9234 18.1321 18.6053 19.8416 19.5951C20.18 19.7914 20.6136 19.6757 20.8099 19.3373C21.0058 18.9986 20.8904 18.565 20.5517 18.3691C19.4388 17.7245 17.2327 17.2711 14.7945 17.1866C13.1678 17.1302 10.0704 17.2045 7.60468 18.3383C7.24909 18.502 7.09345 18.9228 7.25678 19.278Z" fill="#435059"/>
</g>
<defs>
<clipPath id="clip0_125:4316">
<rect width="48" height="48" fill="white"/>
</clipPath>
</defs>
</svg>
